# xmcd
#
# Track frame offsets: 
#        150
#        14955
#        29101
#        43434
#        57158
#        70394
#        84564
#        99545
#        112864
#        127539
#        142876
#        155091
#        169818
#        183488
#        196688
#        210102
#        222442
#        237001
#        251936
#        264788
#
# Disc length: 3722 seconds
#
# Revision: 3
# Processed by: cddbd v1.5.2PL0 Copyright (c) Steve Scherf et al.
# Submitted via: ExactAudioCopy v0.99pb3
#
DISCID=1d0e8814
DTITLE=Louis Armstrong - Mari Cantareti De Jazz Si Blues 1
DYEAR=2012
DGENRE=Jazz
TTITLE0=Cornet Chop Suey
TTITLE1=Willie the Weeper
TTITLE2=Wild Man Blues
TTITLE3=Alligator Crawl
TTITLE4=Potato Head Blues
TTITLE5=Skip the Gutter
TTITLE6=West End Blues
TTITLE7=Two Deuces
TTITLE8=Basin Street Blues
TTITLE9=No One Else But You
TTITLE10=Weatherbird
TTITLE11=Mohagany Hall Stomp
TTITLE12=St. Louis Blues
TTITLE13=I've Got a Right to Sing the Blues
TTITLE14=Strutting With Some Barbecue
TTITLE15=When the Saints Go Marching In
TTITLE16=Savoy Blues
TTITLE17=Wolverine Blues
TTITLE18=2:19 Blues
TTITLE19=When It's Sleepy Time Down South
EXTD=
EXTT0=
EXTT1=
EXTT2=
EXTT3=
EXTT4=
EXTT5=
EXTT6=
EXTT7=
EXTT8=
EXTT9=
EXTT10=
EXTT11=
EXTT12=
EXTT13=
EXTT14=
EXTT15=
EXTT16=
EXTT17=
EXTT18=
EXTT19=
PLAYORDER=
